<svg width="800" height="1000" viewBox="0 0 800 1000" fill="none" xmlns="http://www.w3.org/2000/svg">
  <rect width="800" height="1000" rx="48" fill="#F7F4EC"/>
  <ellipse cx="400" cy="878" rx="182" ry="44" fill="#D9D3C6"/>
  <path d="M262 282C262 191.978 334.978 119 425 119C515.022 119 588 191.978 588 282V370H262V282Z" fill="#E9E1D0"/>
  <path d="M547 377C547 314.592 496.408 264 434 264H373C310.592 264 260 314.592 260 377V649H547V377Z" fill="#A1B29D"/>
  <path d="M284 394C284 346.503 322.503 308 370 308H440C487.497 308 526 346.503 526 394V631H284V394Z" fill="#F3ECDE"/>
  <path d="M316 636H495V786C495 838.467 452.467 881 400 881C347.533 881 305 838.467 305 786V647C305 640.925 309.925 636 316 636Z" fill="#D98D58"/>
  <path d="M297 668H503V733C503 752.33 487.33 768 468 768H332C312.67 768 297 752.33 297 733V668Z" fill="#F1B37A"/>
  <path d="M340 641L306 807" stroke="#6C7E68" stroke-width="32" stroke-linecap="round"/>
  <path d="M468 641L523 798" stroke="#6C7E68" stroke-width="32" stroke-linecap="round"/>
  <path d="M284 425L186 532" stroke="#A1B29D" stroke-width="38" stroke-linecap="round"/>
  <path d="M519 430L622 518" stroke="#A1B29D" stroke-width="38" stroke-linecap="round"/>
  <circle cx="400" cy="248" r="128" fill="#F2C59E"/>
  <path d="M305 246C305 180.83 357.83 128 423 128C488.17 128 541 180.83 541 246V285H305V246Z" fill="#4F5642"/>
  <path d="M311 292C311 222.964 366.964 167 436 167H448C486.108 167 517 197.892 517 236V293L311 292Z" fill="#59644F"/>
  <ellipse cx="352" cy="249" rx="16" ry="24" fill="#23372E"/>
  <ellipse cx="446" cy="249" rx="16" ry="24" fill="#23372E"/>
  <path d="M367 220C367 220 346.5 201 320 214" stroke="#4F5642" stroke-width="14" stroke-linecap="round"/>
  <path d="M432 214C432 214 455 196 479 214" stroke="#4F5642" stroke-width="14" stroke-linecap="round"/>
  <path d="M389 301C404.333 311.667 425.633 314.8 446 300" stroke="#C46F47" stroke-width="12" stroke-linecap="round"/>
  <path d="M396 239L410 274" stroke="#D68559" stroke-width="10" stroke-linecap="round"/>
  <circle cx="330" cy="286" r="18" fill="#EAAE8E" fill-opacity="0.65"/>
  <circle cx="474" cy="284" r="18" fill="#EAAE8E" fill-opacity="0.65"/>
  <path d="M155 522C155 498.804 173.804 480 197 480H292V612H197C173.804 612 155 593.196 155 570V522Z" fill="#F2E6CF"/>
  <path d="M180 515C180 503.402 189.402 494 201 494H274V598H201C189.402 598 180 588.598 180 577V515Z" fill="#D9915F"/>
  <circle cx="224" cy="546" r="28" fill="#7D8F79"/>
  <circle cx="224" cy="546" r="16" fill="#F4F1E8"/>
  <path d="M535 480L586 512L543 611L492 579L535 480Z" fill="#73846F"/>
  <path d="M586 512C626.211 526.632 656.342 555.59 666.989 597.078L677 636L590 604L586 512Z" fill="#D98D58"/>
  <path d="M503 562L530 504" stroke="#5A6757" stroke-width="18" stroke-linecap="round"/>
  <g>
    <ellipse cx="477" cy="512" rx="102" ry="28" fill="#50624E"/>
    <path d="M392 514C392 477.549 421.549 448 458 448H496C532.451 448 562 477.549 562 514V577C562 618.421 528.421 652 487 652H467C425.579 652 392 618.421 392 577V514Z" fill="#607460"/>
    <ellipse cx="477" cy="515" rx="86" ry="20" fill="#C76C43"/>
    <path d="M419 513C419 502.507 427.507 494 438 494H515C525.493 494 534 502.507 534 513V518H419V513Z" fill="#E9C48A"/>
    <circle cx="443" cy="512" r="10" fill="#D2E2C6"/>
    <circle cx="476" cy="506" r="9" fill="#F6EBD7"/>
    <circle cx="507" cy="515" r="10" fill="#D7A061"/>
    <circle cx="468" cy="520" r="7" fill="#F8F5EC"/>
  </g>
  <path d="M462 411C481.753 385.544 490.954 351.42 488 319" stroke="#ECE6D6" stroke-width="12" stroke-linecap="round"/>
  <path d="M515 408C529.395 386.744 537.02 364.208 536 336" stroke="#ECE6D6" stroke-width="12" stroke-linecap="round"/>
  <path d="M557 420C567.761 402.5 572.083 384.5 570 363" stroke="#ECE6D6" stroke-width="12" stroke-linecap="round"/>
  <path d="M245 236C235.593 215.57 239.58 189.291 255 173" stroke="#F1A978" stroke-width="10" stroke-linecap="round"/>
  <path d="M569 209C579.602 192.171 580.72 173.469 574 155" stroke="#F1A978" stroke-width="10" stroke-linecap="round"/>
  <circle cx="592" cy="213" r="15" fill="#F1A978"/>
  <circle cx="238" cy="232" r="12" fill="#F6D0B1"/>
</svg>
