<svg xmlns="http://www.w3.org/2000/svg" width="900" height="260" viewBox="0 0 900 260" fill="none">
  <defs>
    <filter id="shadow" x="-20%" y="-20%" width="140%" height="160%">
      <feDropShadow dx="0" dy="6" stdDeviation="4" flood-color="#D66E57" flood-opacity="0.28"/>
    </filter>
    <clipPath id="caneClip">
      <path d="M0 0h58c10 0 18 8 18 18s-8 18-18 18H36v110c0 14-10 24-24 24s-24-10-24-24V0Z"/>
    </clipPath>
  </defs>

  <g filter="url(#shadow)" transform="translate(180,40)">
    <!-- F -->
    <rect x="0" y="12" width="20" height="154" rx="10" fill="#FF5A33"/>
    <rect x="0" y="12" width="60" height="20" rx="10" fill="#FF5A33"/>
    <rect x="0" y="78" width="48" height="20" rx="10" fill="#FF5A33"/>

    <!-- plate o -->
    <g transform="translate(76,53)">
      <circle cx="38" cy="38" r="37" fill="#FF5A33"/>
      <circle cx="38" cy="38" r="31.5" fill="white"/>
      <circle cx="38" cy="38" r="24.5" fill="none" stroke="#FF8B73" stroke-width="3"/>
      <path d="M40.5 -5.5c8.2 6.8 9.5 13.2 4 19.2" stroke="#F7C7BA" stroke-width="2.3" stroke-linecap="round"/>
      <path d="M26 29v21" stroke="#FF8B73" stroke-width="3.2" stroke-linecap="round"/>
      <path d="M22.5 27v7M26 27v7M29.5 27v7" stroke="#FF8B73" stroke-width="2.1" stroke-linecap="round"/>
      <path d="M48 27c0-3.4 1.9-5.4 5.5-6v29" stroke="#FF8B73" stroke-width="3.2" stroke-linecap="round" stroke-linejoin="round"/>
    </g>

    <!-- first round o -->
    <circle cx="206" cy="91" r="40" fill="#FF5A33"/>
    <circle cx="206" cy="91" r="20" fill="white"/>

    <!-- d -->
    <g>
      <circle cx="302" cy="91" r="40" fill="#FF5A33"/>
      <circle cx="302" cy="91" r="20" fill="white"/>
      <rect x="330" y="0" width="20" height="131" rx="10" fill="#FF5A33"/>
    </g>

    <!-- T -->
    <g>
      <rect x="384" y="0" width="20" height="166" rx="10" fill="#FF5A33"/>
      <rect x="350" y="0" width="88" height="20" rx="10" fill="#FF5A33"/>
      <path d="M343 25c7-20 20-30 39-30-3 18-13 31-30 39h-9Z" fill="#53E18F"/>
    </g>

    <!-- candy cane r -->
    <g transform="translate(466,-2)">
      <g clip-path="url(#caneClip)">
        <path d="M0 0h58c10 0 18 8 18 18s-8 18-18 18H36v110c0 14-10 24-24 24s-24-10-24-24V0Z" fill="#FF5A33"/>
        <g transform="rotate(35 30 80)">
          <rect x="-10" y="-20" width="18" height="240" fill="white"/>
          <rect x="24" y="-20" width="18" height="240" fill="white"/>
          <rect x="58" y="-20" width="18" height="240" fill="white"/>
          <rect x="92" y="-20" width="18" height="240" fill="white"/>
        </g>
      </g>
    </g>
  </g>
</svg>